<?xml version="1.0" encoding="UTF-8"?>
<svg width="94px" height="104px" viewBox="0 0 94 104" version="1.1" xmlns="http://www.w3.org/2000/svg" xmlns:xlink="http://www.w3.org/1999/xlink">
    <title>open_saas</title>
    <g id="logo_open_saas" stroke="none" stroke-width="1" fill="none" fill-rule="evenodd">
        <g transform="translate(-742.000000, -29.000000)" id="logo">
            <g transform="translate(741.999985, 29.000011)" id="open_saas">
                <path d="M85.944715,20.4716889 L53.853255,1.94368886 C49.3645143,-0.647896288 43.8341507,-0.647896288 39.34541,1.94368886 L7.25395,20.4716889 C2.76519637,23.0632672 7.10542736e-14,27.852705 7.10542736e-14,33.0358689 L7.10542736e-14,70.0918989 C7.10542736e-14,75.2750533 2.76519889,80.0644801 7.25395,82.6560439 L39.34541,101.184044 C43.8341507,103.775629 49.3645143,103.775629 53.853255,101.184044 L85.944715,82.6560439 C90.4334713,80.0644866 93.198655,75.2750545 93.198655,70.0918989 L93.198655,33.0358689 C93.198655,27.852704 90.4334731,23.0632615 85.944715,20.4716889 Z" id="Shape" fill="#6F5BD8" fill-rule="nonzero"></path>
                <path d="M60.5814027,36.5901878 C61.3600143,35.8067098 62.6263381,35.8027649 63.4098161,36.5813765 C64.1520583,37.3190086 64.1946643,38.4943657 63.5350632,39.2822118 L63.4186273,39.4097899 L40.5614845,62.4097899 C39.8206006,63.1553044 38.6389579,63.194542 37.8516784,62.5275027 L37.7242598,62.4097899 L28.5814027,53.2097899 C27.802791,52.426312 27.806736,51.1599882 28.5902139,50.3813765 C29.3324562,49.6437445 30.508056,49.6084623 31.2917771,50.2729593 L31.4186273,50.3901878 L39.1424583,58.1619889 L60.5814027,36.5901878 Z" id="Path" fill="#FFFFFF" fill-rule="nonzero"></path>
                <path d="M20.5378858,59.0655256 C21.0559042,58.4190363 21.9999243,58.3148901 22.6464136,58.8329085 L29.6724554,64.4627292 C30.3189448,64.9807476 30.423091,65.9247676 29.9050726,66.5712569 C29.3870542,67.2177462 28.4430342,67.3218925 27.7965449,66.8038741 L20.770503,61.1740534 C20.1240137,60.656035 20.0198674,59.712015 20.5378858,59.0655256 Z" id="Path-2" fill="#FFFFFF" fill-rule="nonzero" transform="translate(25.221479, 62.818391) rotate(-25.000000) translate(-25.221479, -62.818391) "></path>
                <path d="M55.1470328,53.4715333 C55.9687533,53.3663336 56.7201705,53.9471885 56.8253702,54.7689089 L56.8935142,55.3253666 L57.0306136,56.6096506 L57.2895616,59.4646899 L57.6963928,64.1379597 L57.8219698,65.4254638 L57.8873612,66.0263767 L57.9686796,66.6993618 C58.0738793,67.5210823 57.4930245,68.2724995 56.671304,68.3776992 C55.8495835,68.4828989 55.0981663,67.902044 54.9929666,67.0803236 L54.8912901,66.2304684 L54.7119317,64.4450633 L54.1026286,57.5039854 L53.979788,56.2663397 L53.8824837,55.4121271 L53.8496571,55.1498707 C53.7444575,54.3281502 54.3253123,53.576733 55.1470328,53.4715333 Z" id="Path-2" fill="#FFFFFF" fill-rule="nonzero" transform="translate(55.909168, 60.924616) rotate(80.000000) translate(-55.909168, -60.924616) "></path>
                <path d="M46.4877778,67.4619629 L46.6322094,67.4694142 L54.8613665,68.2865244 C55.6857397,68.3683801 56.287669,69.1030238 56.2058133,69.927397 C56.1287726,70.7032776 55.4734837,71.2821146 54.7093722,71.279295 L54.5649407,71.2718437 L46.3357835,70.4547335 C45.5114104,70.3728778 44.9094811,69.6382341 44.9913368,68.8138609 C45.0683775,68.0379803 45.7236663,67.4591433 46.4877778,67.4619629 Z" id="Path-3" fill="#FFFFFF" fill-rule="nonzero"></path>
                <path d="M78.988,29.1178689 C78.7604186,29.5126652 78.3852107,29.8007814 77.945047,29.918736 C77.5048832,30.0366907 77.0358822,29.9748048 76.64138,29.7467139 L51.4373,15.1953839 C48.4422444,13.4718439 44.7564206,13.4718439 41.761365,15.1953839 L16.557265,29.7467139 C15.7358616,30.2183842 14.6876648,29.9361848 14.2140927,29.1158763 C13.7405206,28.2955679 14.0202909,27.2467201 14.8395,26.7712489 L40.043575,12.2199189 C44.102313,9.88529417 49.096377,9.88529417 53.155115,12.2199189 L78.359185,26.7712489 C79.1808014,27.2456286 79.4623246,28.2962207 78.988,29.1178689 L78.988,29.1178689 Z" id="Path" fill="#FFFFFF"></path>
                <path d="M78.7227624,91.6795812 C78.495181,92.0743775 78.1199731,92.3624937 77.6798094,92.4804483 C77.2396456,92.598403 76.7706445,92.5365171 76.3761424,92.3084262 L51.1720624,77.7570962 C48.1770068,76.0335562 44.491183,76.0335562 41.4961274,77.7570962 L16.2920274,92.3084262 C15.470624,92.7800965 14.4224272,92.4978971 13.9488551,91.6775887 C13.475283,90.8572802 13.7550532,89.8084324 14.5742624,89.3329612 L39.7783374,74.7816312 C43.8370754,72.4470065 48.8311393,72.4470065 52.8898774,74.7816312 L78.0939474,89.3329612 C78.9155637,89.8073409 79.197087,90.857933 78.7227624,91.6795812 L78.7227624,91.6795812 Z" id="Path" fill="#FFFFFF" transform="translate(46.335806, 82.784812) rotate(-180.000000) translate(-46.335806, -82.784812) "></path>
            </g>
        </g>
    </g>
</svg>